<svg width="150" height="65.9" xmlns="http://www.w3.org/2000/svg">
 <title>download 3</title>

 <desc>Created with Sketch.</desc>
 <g>
  <title>background</title>
  <rect fill="none" id="canvas_background" height="402" width="582" y="-1" x="-1"/>
 </g>
 <g>
  <title>Layer 1</title>
  <g id="Login">
   <g id="Tour-1">
    <g id="download-3">
     <path d="m-75.1,399.7c-1.1,0.1 -2.2,0.4 -3.4,0.7c-0.4,0.1 -0.7,0.4 -1,0.7c-0.3,0.3 -0.6,0.6 -0.8,0.8c-0.2,0.2 -0.4,0.6 -0.6,1.2c-0.2,0.6 -0.4,1 -0.5,1.3c-0.1,0.3 -0.3,0.9 -0.5,1.7c-0.2,0.8 -0.4,1.5 -0.5,1.9c-0.9,3.2 -2.4,6.4 -4.5,9.7c-2,3.3 -3.8,5 -5.3,5.2c-0.8,0.1 -1.3,-0.6 -1.4,-2c-0.3,-2.7 0.3,-6.1 1.6,-10.2c1.4,-4.1 2.8,-7 4.4,-8.7c0.2,-0.3 0.3,-0.5 0.3,-0.7c0,-0.2 -0.1,-0.2 -0.3,-0.2c-2.2,0.2 -4,0.7 -5.2,1.4c-1.2,0.7 -2.3,2 -3.4,4.1c-0.8,1.6 -1.4,3.5 -2,5.9c-2.8,6.8 -5.4,10.3 -7.7,10.6c-0.8,0.1 -1.2,-0.4 -1.3,-1.5c-0.2,-2.1 0.4,-5.6 2,-10.4c1.5,-4.8 2.9,-7.9 4.2,-9.1l-0.6,0.1l-3.2,0.3c-0.8,0.1 -1.7,0.5 -2.6,1.4c-0.9,0.8 -1.5,1.7 -1.9,2.8c-0.5,-1.3 -1.4,-2.2 -2.7,-2.7c-1.3,-0.5 -2.6,-0.7 -3.9,-0.5c-2.9,0.3 -5.4,1.7 -7.6,4c-2.2,2.4 -3.8,5.2 -4.7,8.3c0,0.1 0,0.1 -0.1,0.2c-0.1,0.3 -0.3,0.7 -0.5,1.1c-1.1,2.4 -1.9,4 -2.5,5c-1.1,1.8 -2.5,3.5 -4.2,5.1s-3.3,2.5 -5.1,2.7l-0.5,0.1c2.6,-2.2 4.7,-5 6.3,-8.6c1.7,-3.6 2.3,-7 2,-10.2c-0.4,-3.9 -2,-5.6 -4.9,-5.3c-3,0.3 -6.2,3.3 -9.6,8.9c1.7,-4.4 3.1,-7.1 4.2,-8.1l-1.9,0.2c-2.5,0.3 -4.2,1 -5.1,2.1c-0.4,0.6 -1.1,2.3 -1.9,5c-0.3,1 -0.7,2.4 -1.2,4.3c-1.5,3.4 -3.3,5.2 -5.3,5.5c-1.2,0.1 -2.1,-0.2 -2.9,-1c0.6,-2.3 0.9,-4.5 0.6,-6.5c-0.6,-5.3 -3.4,-7.7 -8.4,-7.1c-3,0.3 -5.6,1.6 -7.8,3.9c-1.3,1.4 -2.4,2.9 -3.3,4.5c0,0 0,0 0,-0.1c-2,3.8 -5.6,10.4 -10,14.2c-4.4,3.8 -8.8,5.9 -13.1,6.4c-6.9,0.7 -10.7,-2.6 -11.5,-10.1c-0.5,-4.8 0.2,-9.7 2.2,-14.7c2,-5 4.9,-9.1 8.7,-12.5c3.8,-3.4 7.8,-5.3 12.2,-5.8c3.3,-0.4 5,0.7 5.3,3.1c0.2,1.6 -0.4,3 -1.7,4.3c-1.3,1.3 -2.7,2 -4.4,2.2c-0.6,0.1 -1.1,0 -1.6,-0.1c-0.4,0.8 -0.6,1.5 -0.5,2.1c0.1,0.6 0.4,1.1 1.1,1.5c0.6,0.3 1.4,0.5 2.4,0.4c2,-0.2 3.8,-1 5.6,-2.4s2.8,-2.9 3.3,-4.8c0.2,-1 0.3,-1.8 0.2,-2.6c-0.2,-2.1 -1.4,-3.6 -3.7,-4.7s-5.3,-1.4 -9.2,-1c-3.9,0.4 -7.7,1.9 -11.5,4.4c-3.8,2.5 -6.8,5.6 -9.1,9.1c-2.3,3.5 -4,7.3 -5.2,11.3c-1.2,4 -1.5,7.7 -1.2,11.2c1,9.2 6.5,13.3 16.4,12.2c4.3,-0.5 8.4,-1.7 12.3,-3.8c3.9,-2.1 7.1,-4.7 9.5,-7.8c0.4,-0.5 0.7,-1 1.1,-1.4c0,0.4 0,0.7 0.1,1.1c0.3,2.6 1.2,4.5 2.6,5.6c1.5,1.1 3.3,1.6 5.4,1.4c3.3,-0.4 5.9,-1.5 7.8,-3.4c1.9,-1.9 3.5,-4.5 4.7,-7.6c1.1,0.7 2.4,1 3.8,0.8c1.2,-0.1 2.5,-0.8 3.7,-1.9c-0.6,2.5 -1.3,5.5 -2.1,8.8c-2.3,9.8 -3.9,15.5 -4.9,17.3l3,-0.3c0.8,-0.1 1.5,-0.3 2.1,-0.5c0.5,-0.3 1,-0.8 1.3,-1.6c0.4,-0.8 0.8,-2.5 1.4,-5l2.4,-11.4c0.7,2 3.1,2.8 7.2,2.4c4.1,-0.4 7.4,-2.1 10.1,-5c1.7,-1.8 3.2,-3.9 4.6,-6.5c0,1 0,2 0.1,3c0.4,3.9 2,5.6 4.9,5.3c4.1,-0.4 8.1,-5.2 12,-14.2c-0.6,2.6 -0.8,5.2 -0.5,7.8c0.4,3.5 1.7,5.1 4,4.9c2.9,-0.3 6.1,-3.7 9.6,-10.3c-0.2,1.6 -0.2,2.9 -0.1,3.9c0.2,1.8 0.6,3 1.4,3.9c0.8,0.8 1.7,1.2 2.8,1.1s2.1,-0.4 2.9,-0.7c0.8,-0.3 1.9,-1.2 3.2,-2.6c1.3,-1.4 2.8,-3.4 4.6,-6.1l-2.6,10c-1.7,6.3 -4.2,9.7 -7.6,10.1c-0.9,0.1 -1.6,-0.1 -2.3,-0.5c-0.6,-0.4 -1,-1 -1.1,-1.8c-0.2,-1.5 0.1,-2.4 0.9,-2.8c-0.3,-0.4 -0.7,-0.7 -1.2,-1s-1.2,-0.4 -1.9,-0.3c-0.7,0.1 -1.4,0.5 -1.8,1.3c-0.5,0.8 -0.7,1.7 -0.6,2.6c0.2,1.8 1.1,3 2.7,3.6c1.6,0.7 3.4,0.9 5.6,0.6c2.1,-0.2 4.2,-1 6.1,-2.2c2,-1.3 3.5,-2.8 4.8,-4.7c1.2,-1.9 2.2,-4.3 2.9,-7.4c0.3,-1 0.6,-2.4 1,-4.3c0.4,-1.9 0.7,-3 0.8,-3.5c0.1,-0.5 0.4,-1.8 1,-4.1c0.5,-2.3 1.2,-4.7 2,-7.5c1,-3.3 2.1,-5.4 3.4,-6.4l-2.6,-0.4l0,0zm-89.1,14.8c-1.1,0.1 -1.9,0.5 -2.4,1.3c-0.5,0.7 -0.8,1.7 -0.6,2.8c0.2,1.9 1.1,3.3 2.7,4.4c-0.8,2.4 -1.9,4.7 -3.2,6.8c-1.3,2.1 -2.9,3.2 -4.7,3.4c-2.2,0.1 -3.5,-1.1 -3.7,-3.6c-0.3,-2.5 0.2,-5.4 1.4,-8.7c2.2,-5.9 4.7,-9 7.7,-9.4c1.9,-0.2 3,0.8 3.4,3l-0.6,0l0,0zm16.2,16.2c-1.2,0.1 -1.9,-0.8 -2.2,-2.8s0.5,-4.6 2.1,-7.9c1.6,-3.3 3.2,-5.7 4.8,-7.3c1,-1 1.9,-1.5 2.8,-1.6c0.3,0 0.4,0 0.6,0c0.7,0.1 1,0.7 1.2,1.7c0.3,2.4 -0.7,6 -2.8,10.6c-2.2,4.7 -4.3,7.1 -6.5,7.3l0,0zm33.7,-14c-1,2 -2.1,3.7 -3.5,5.2c-1.3,1.5 -2.6,2.4 -3.7,2.5c-1,0.1 -1.6,-0.5 -1.7,-1.8c-0.3,-3 0.6,-6.6 2.8,-10.7c2.2,-4.1 4.7,-6.3 7.5,-6.6c1.6,-0.2 2.6,0.4 3.2,1.7c-0.9,2.1 -2.5,5.3 -4.6,9.7l0,0z" fill="#2C3E50" id="Shape_4_"/>
     <path d="m-161.8,439.1c-14.4,2.5 -28.3,5.9 -38,9.9c-4.1,1.7 -5.1,5 -3.8,8.1c16.6,-7.5 24.8,-9.7 36.9,-12.7c2.1,-0.5 3.9,-2.1 4.6,-4.2c0.1,-0.3 0.2,-0.7 0.3,-1.1l0,0z" fill="#2C3E50" id="Shape_5_"/>
     <path d="m-107.8,437.5c0.4,-1.8 -0.1,-1.9 -1.9,-2.1c-10.1,-1.5 -21.1,-1.4 -34.4,1.5c-2.2,0.5 -4.1,2 -4.4,4.3c-0.1,0 16.6,-5.5 40.7,-3.7l0,0l0,0z" fill="#2C3E50" id="Shape_6_"/>
    </g>
   </g>
  </g>
  <text stroke="#000" transform="matrix(2.8973618518688227,0,0,2.573770523071289,-327.51786986351635,-79.4754114151001) " xml:space="preserve" text-anchor="start" font-family="Helvetica, Arial, sans-serif" font-size="10" id="svg_1" y="47.004152" x="118.584009" stroke-width="0" fill="#000000">粽子钱包</text>
 </g>
</svg>