<?xml version="1.0" encoding="UTF-8"?>
<!DOCTYPE svg PUBLIC "-//W3C//DTD SVG 1.1//EN" "http://www.w3.org/Graphics/SVG/1.1/DTD/svg11.dtd">
<!-- Creator: CorelDRAW -->
<svg xmlns="http://www.w3.org/2000/svg" xml:space="preserve" width="137.564mm" height="137.564mm" style="shape-rendering:geometricPrecision; text-rendering:geometricPrecision; image-rendering:optimizeQuality; fill-rule:evenodd; clip-rule:evenodd"
viewBox="0 0 132.728 132.728"
 xmlns:xlink="http://www.w3.org/1999/xlink">
 <defs>
  <style type="text/css">
   <![CDATA[
    .fil0 {fill:#FFE206}
    .fil1 {fill:#4D4D4D;fill-rule:nonzero}
   ]]>
  </style>
 </defs>
 <g id="图层_x0020_1">
  <metadata id="CorelCorpID_0Corel-Layer"/>
  <g id="_653368992">
   <circle id="_267539376" class="fil0" cx="66.364" cy="66.364" r="66.364"/>
   <g>
    <path id="_267674936" class="fil1" d="M51.6997 20.6454l43.6976 21.108c2.20265,1.06384 4.17258,3.08683 5.5718,5.48824 1.37587,2.36204 2.23024,5.13598 2.23024,7.75042l0 41.1173c0,1.57675 -0.311356,2.96748 -0.865275,4.11459 -0.528157,1.09365 -1.2763,1.96356 -2.19281,2.56977 -0.949795,0.628791 -2.04847,0.96311 -3.24246,0.96311 -1.04348,0 -2.15769,-0.261184 -3.29881,-0.812304l-43.6976 -21.108c-2.20265,-1.06384 -4.17258,-3.08703 -5.5718,-5.48843 -1.37597,-2.36185 -2.23044,-5.13578 -2.23044,-7.75042l0 -41.1173c0,-1.57675 0.31126,-2.96729 0.865275,-4.1144 0.528061,-1.09365 1.27649,-1.96346 2.19271,-2.56977 0.950085,-0.628984 2.04895,-0.963014 3.24275,-0.963014 1.04348,0 2.15769,0.261088 3.29881,0.812208zm41.9003 24.832l-43.6976 -21.108c-0.549384,-0.265333 -1.05535,-0.391149 -1.50149,-0.391149 -0.371852,0 -0.696619,0.0927218 -0.959637,0.26678 -0.296787,0.19625 -0.55334,0.507123 -0.751905,0.918341 -0.28434,0.588557 -0.444119,1.36844 -0.444119,2.31708l0 41.1173c0,1.88116 0.637281,3.91583 1.66378,5.67783 1.00354,1.72254 2.34795,3.14029 3.79069,3.8371l43.6976 21.108c0.549384,0.265333 1.05506,0.391149 1.50149,0.391149 0.371659,0 0.696426,-0.0926253 0.959347,-0.26678 0.296787,-0.19625 0.553436,-0.50693 0.752002,-0.918341 0.28434,-0.588557 0.444119,-1.36844 0.444119,-2.31727l0 -41.1173c0,-1.88145 -0.637281,-3.91602 -1.66359,-5.67783 -1.00334,-1.72206 -2.34805,-3.14009 -3.79069,-3.83691z"/>
    <path id="_654936240" class="fil1" d="M39.1288 29.7834l43.6973 21.108c2.20275,1.06384 4.17267,3.08683 5.5718,5.48824 1.37597,2.36214 2.23024,5.13598 2.23024,7.75042l0 41.1173c0,1.57685 -0.31126,2.96748 -0.865275,4.11459 -0.528061,1.09365 -1.2763,1.96356 -2.19271,2.56977 -0.949892,0.628791 -2.04847,0.96311 -3.24246,0.96311 -1.04358,0 -2.15769,-0.261184 -3.29891,-0.812208l-43.6973 -21.1081c-2.20246,-1.06384 -4.17287,-3.08683 -5.57199,-5.48824 -1.37597,-2.36185 -2.23044,-5.13569 -2.23044,-7.75042l0 -41.1173c0,-1.57675 0.31126,-2.96719 0.865275,-4.1144 0.528061,-1.09365 1.2762,-1.96346 2.19271,-2.56987 0.950278,-0.62908 2.04885,-0.96311 3.24266,-0.96311 1.04377,0 2.15788,0.261088 3.2991,0.812208zm41.9 24.832l-43.6973 -21.108c-0.54948,-0.265333 -1.05535,-0.391149 -1.50178,-0.391149 -0.371562,0 -0.69633,0.0927218 -0.95954,0.26678 -0.296787,0.196443 -0.553436,0.507123 -0.751905,0.918534 -0.284437,0.588653 -0.444215,1.36854 -0.444215,2.31708l0 41.1173c0,1.88126 0.637378,3.91583 1.66388,5.67793 1.00354,1.72225 2.34815,3.14009 3.79088,3.83681l43.6973 21.1081c0.54948,0.265236 1.05516,0.391052 1.50159,0.391052 0.371562,0 0.69633,-0.0926253 0.959347,-0.26678 0.296787,-0.19625 0.55334,-0.50693 0.751905,-0.918341 0.28434,-0.588557 0.444119,-1.36844 0.444119,-2.31727l0 -41.1173c0,-1.88135 -0.637281,-3.91602 -1.66359,-5.67783 -1.00334,-1.72206 -2.34795,-3.14009 -3.79069,-3.83691z"/>
   </g>
  </g>
 </g>
</svg>
