<?xml version="1.0" encoding="UTF-8"?>
<!DOCTYPE svg PUBLIC "-//W3C//DTD SVG 1.1//EN" "http://www.w3.org/Graphics/SVG/1.1/DTD/svg11.dtd">
<!-- Creator: CorelDRAW -->
<svg xmlns="http://www.w3.org/2000/svg" xml:space="preserve" width="143.589mm" height="40.436mm" style="shape-rendering:geometricPrecision; text-rendering:geometricPrecision; image-rendering:optimizeQuality; fill-rule:evenodd; clip-rule:evenodd"
viewBox="0 0 48.9321 13.7797"
 xmlns:xlink="http://www.w3.org/1999/xlink">
 <defs>
  <style type="text/css">
   <![CDATA[
    .fil0 {fill:#332C2B;fill-rule:nonzero}
   ]]>
  </style>
 </defs>
 <g id="图层_x0020_1">
  <metadata id="CorelCorpID_0Corel-Layer"/>
  <path class="fil0" d="M16.4441 5.42737c-0.188996,0.000647479 -0.358124,0.0269215 -0.507385,0.0787879 -0.149261,0.0512871 -0.27862,0.123021 -0.389475,0.213941 -0.110208,0.0909878 -0.201161,0.19605 -0.273543,0.31522 -0.0723813,0.118489 -0.12619,0.246587 -0.161427,0.382421 -0.0352705,0.1358 -0.0525139,0.274804 -0.0519346,0.416397 0.000681556,0.140946 0.0186406,0.278654 0.0538429,0.413841 0.0346231,0.135153 0.0877845,0.261343 0.159518,0.379218 0.0710863,0.118489 0.161427,0.22229 0.270987,0.31263 0.109526,0.0896928 0.238954,0.160779 0.38818,0.211419 0.149908,0.051219 0.319684,0.0768114 0.511235,0.0781064 0.151817,0 0.292081,-0.0172775 0.420248,-0.051219 0.127451,-0.033294 0.242736,-0.0832862 0.344595,-0.148613l0.326704 0.322853 0.357476 -0.357476 -0.319002 -0.315186c0.0576256,-0.0838996 0.105028,-0.173592 0.142854,-0.269658 0.0371107,-0.0960994 0.0646797,-0.19605 0.0826387,-0.298556 0.0172775,-0.102506 0.0256265,-0.204978 0.0242975,-0.308098 -0.00187428,-0.139003 -0.0210942,-0.275485 -0.0570122,-0.408729 -0.0358499,-0.13321 -0.0896247,-0.258174 -0.161427,-0.37472 -0.0710863,-0.115967 -0.161427,-0.21912 -0.270305,-0.307484 -0.108913,-0.0890453 -0.237659,-0.158291 -0.385659,-0.208215 -0.147966,-0.0506056 -0.316447,-0.0762321 -0.505408,-0.0768796zm0 0.457358c0.126804,0.000647479 0.237659,0.017959 0.333111,0.0519346 0.0954179,0.0345549 0.177409,0.0813437 0.24536,0.140912 0.067883,0.059568 0.122953,0.128099 0.166504,0.204978 0.042938,0.0769136 0.0755846,0.158223 0.0973944,0.244713 0.0217757,0.0864895 0.034589,0.172979 0.0377923,0.260729 0.00385079,0.0928961 -0.00446419,0.185792 -0.0256265,0.278041 -0.0210942,0.0928961 -0.0550698,0.180612 -0.101211,0.263251 -0.0454598,0.0832862 -0.104449,0.156996 -0.175501,0.221676 -0.0711545,0.0647138 -0.155054,0.115285 -0.251119,0.152464 -0.0960994,0.0371448 -0.205012,0.0563647 -0.326704,0.0570122 -0.116614,-0.000647479 -0.222324,-0.017959 -0.315867,-0.0525139 -0.0934754,-0.0346231 -0.174853,-0.0819912 -0.245292,-0.142207 -0.070507,-0.0602496 -0.129428,-0.129428 -0.17683,-0.206955 -0.0474363,-0.0781404 -0.0826387,-0.160779 -0.107004,-0.24853 -0.0243316,-0.087137 -0.0377582,-0.175501 -0.0390873,-0.264546 -0.00187428,-0.0916693 0.00770159,-0.182589 0.0282164,-0.27419 0.0204808,-0.0909878 0.052548,-0.178091 0.0967128,-0.260116 0.0448464,-0.0819912 0.101893,-0.15502 0.171684,-0.219052 0.0698254,-0.0640663 0.153759,-0.114706 0.251119,-0.151237 0.0973944,-0.0371107 0.209476,-0.0557172 0.336348,-0.0563647zm3.64561 -0.395882l-0.603416 0 0 0.0230707 1.03392 1.55862 0 1.11271 0.507351 0 0 -1.11271 1.07239 -1.55862 0 -0.0230707 -0.611152 0 -0.714919 1.11213 -0.68418 -1.11213zm4.32206 1.52975l0.776463 0c0.0531273,0 0.108231,0.00770159 0.166504,0.0237182 0.0576937,0.0154032 0.112116,0.0390532 0.163403,0.0698254 0.0505715,0.0314197 0.0922146,0.0698254 0.124248,0.115319 0.0319991,0.0461073 0.0486631,0.0993028 0.0493106,0.160166 -0.000647479,0.0634188 -0.0173115,0.115285 -0.0493106,0.157576 -0.0320331,0.041609 -0.0736762,0.0749371 -0.124248,0.0993028 -0.0512871,0.0236841 -0.105709,0.0409956 -0.163403,0.051253 -0.0582731,0.0102233 -0.113377,0.0153691 -0.166504,0.0147216l-0.776463 0 0 -0.691882zm0 -1.06848l0.776463 0c0.0806963,0.000647479 0.147966,0.0121317 0.202388,0.0345549 0.0544564,0.0224232 0.0980419,0.0506396 0.130041,0.0851945 0.0326806,0.0346231 0.0557513,0.0711204 0.0698595,0.108299 0.0141082,0.0377582 0.0210942,0.0730288 0.0205148,0.10438 0.000579323,0.052548 -0.0122339,0.100598 -0.0384739,0.144115 -0.0269215,0.0435855 -0.0710863,0.0788561 -0.132631,0.10513 -0.0621239,0.0268874 -0.146023,0.0403141 -0.251699,0.0409615l-0.776463 0 0 -0.622636zm0.776463 -0.461277c-0.213361,0 -0.426654,0 -0.639368,0 -0.213293,0 -0.425325,0 -0.636744,0l0 2.6944c0.213327,0 0.426007,0 0.638073,0 0.211998,0 0.424678,0 0.638039,0 0.140264,0.000647479 0.270953,-0.0128133 0.392679,-0.0397347 0.121044,-0.0262399 0.228049,-0.0704729 0.31965,-0.131302 0.0922486,-0.060863 0.163982,-0.142207 0.215883,-0.244065 0.0518664,-0.101893 0.0781404,-0.227435 0.0787879,-0.376662 0,-0.0435855 -0.00770159,-0.0941911 -0.0230366,-0.151817 -0.0154373,-0.0576937 -0.0403822,-0.115967 -0.0737103,-0.175535 -0.0339415,-0.059568 -0.0787879,-0.113411 -0.133244,-0.162074 -0.0550698,-0.0480838 -0.121726,-0.0852286 -0.200514,-0.110208 0.0832862,-0.0378264 0.15059,-0.0839337 0.201809,-0.138356 0.0512871,-0.0544904 0.0890453,-0.114058 0.112763,-0.179386 0.0236841,-0.0653272 0.0358499,-0.133244 0.0352024,-0.203036 -0.000647479,-0.135834 -0.0242975,-0.253062 -0.0698254,-0.351717 -0.0461414,-0.0986553 -0.110821,-0.180033 -0.194107,-0.243418 -0.0832862,-0.0634188 -0.18126,-0.110855 -0.294023,-0.141559 -0.112116,-0.0307723 -0.235103,-0.045528 -0.368313,-0.045528zm8.24104 0l-0.568861 0 -0.614968 1.94359 -0.672662 -1.94359 -0.330555 0 -0.653408 1.94359 -0.634188 -1.94359 -0.568861 0 0.987814 2.6944 0.430471 0 0.326704 -0.8392 0.280597 -0.858386 0.284413 0.850685 0.334406 0.846902 0.430505 0 0.968594 -2.6944zm3.04979 1.06084c-0.0364973,-0.0634188 -0.0858079,-0.117841 -0.147966,-0.163335 -0.0621239,-0.0461073 -0.131949,-0.0813778 -0.21009,-0.106323 -0.0781745,-0.0250131 -0.160166,-0.0378264 -0.24536,-0.0378264 -0.139003,-0.000613401 -0.268431,0.0198674 -0.387567,0.0615105 -0.119749,0.0416431 -0.224198,0.104414 -0.313891,0.187701 -0.0896928,0.0832862 -0.159484,0.187019 -0.210124,0.311335 -0.0499581,0.1236 -0.0755846,0.267783 -0.0762321,0.431118 0.000647479,0.166572 0.024979,0.31263 0.0737103,0.438173 0.0486631,0.12619 0.116546,0.231286 0.204331,0.315799 0.0871029,0.0851945 0.190222,0.148647 0.308745,0.190904 0.118489,0.0423246 0.248564,0.0627713 0.389475,0.062192 0.0538089,-0.00132903 0.110208,-0.00838314 0.170423,-0.0224914 0.059568,-0.0140401 0.118523,-0.0352024 0.176182,-0.0627713 0.0576256,-0.0275008 0.109492,-0.0621239 0.156928,-0.103085 0.0467548,-0.0416772 0.0839337,-0.0903403 0.111434,-0.146058l0.0230707 0.276712 0.442057 0 0 -1.89493 -0.449691 0 -0.0154373 0.261377zm-0.561159 0.111503c0.0922486,0.000613401 0.172979,0.0172434 0.242191,0.0493106 0.069178,0.0320331 0.126838,0.0755846 0.172979,0.130007 0.0461073,0.0544904 0.0806622,0.115967 0.103733,0.184497 0.0230707,0.0679512 0.0346231,0.138424 0.0346231,0.210805 0,0.0723813 -0.0115524,0.14282 -0.0346231,0.210737 -0.0230707,0.0685305 -0.0576256,0.129428 -0.103733,0.184497 -0.0461414,0.0544564 -0.103801,0.0979737 -0.172979,0.130041 -0.069212,0.0320331 -0.149942,0.0486972 -0.242191,0.0493447 -0.0781064,0 -0.151169,-0.0134607 -0.219086,-0.0390873 -0.067883,-0.0262399 -0.126804,-0.0640663 -0.178091,-0.113377 -0.051219,-0.0499922 -0.0915671,-0.110208 -0.119749,-0.181294 -0.0288639,-0.0717338 -0.0435514,-0.152464 -0.044233,-0.242804 0.000681556,-0.0903062 0.0153691,-0.171037 0.044233,-0.242123 0.0281824,-0.0704729 0.0685305,-0.130723 0.119749,-0.180033 0.0512871,-0.0486631 0.110208,-0.0864895 0.178091,-0.112116 0.0679171,-0.0255924 0.14098,-0.0384057 0.219086,-0.0384057zm3.02676 -1.16464l0 2.6867 0.465128 0 0 -2.6867 -0.465128 0zm2.481 0l0 2.6867 0.465094 0 0 -2.6867 -0.465094 0zm4.36056 1.90645c0.0178909,-0.195402 0.00763343,-0.365791 -0.0294773,-0.512496 -0.0371448,-0.146671 -0.0986553,-0.268431 -0.183884,-0.366439 -0.0851945,-0.0973944 -0.19087,-0.171002 -0.316447,-0.2197 -0.125543,-0.0493447 -0.268431,-0.0736762 -0.427302,-0.0736762 -0.154373,0.000647479 -0.293376,0.024979 -0.416976,0.0736762 -0.123668,0.0486972 -0.229344,0.117228 -0.317162,0.205626 -0.0877163,0.0890113 -0.15502,0.19346 -0.201741,0.313891 -0.0467548,0.121078 -0.0704729,0.253709 -0.0711204,0.398472 0.000647479,0.152464 0.0237182,0.290173 0.0711204,0.413841 0.0467207,0.124248 0.115319,0.230605 0.205012,0.319002 0.0896247,0.0890453 0.198537,0.157576 0.327283,0.205626 0.128167,0.0473682 0.274838,0.0717338 0.438207,0.0723813 0.0973603,0 0.195402,-0.0109049 0.294705,-0.033294 0.0998821,-0.0230707 0.194721,-0.0570463 0.284413,-0.102506 0.0896928,-0.0454598 0.167833,-0.102506 0.235716,-0.171684l-0.299783 -0.295966c-0.0371789,0.0371448 -0.0839337,0.069212 -0.140912,0.095486 -0.0570463,0.026274 -0.117909,0.0461073 -0.181941,0.0601814 -0.0641004,0.0141082 -0.125577,0.0211623 -0.184497,0.0211623 -0.110208,-0.000647479 -0.206273,-0.017959 -0.28639,-0.052548 -0.0806622,-0.034589 -0.144763,-0.0819912 -0.192165,-0.142207 -0.0467207,-0.0602155 -0.0762321,-0.130041 -0.0864554,-0.208829l1.4798 0zm-1.47213 -0.38818c0.0237182,-0.0820594 0.060863,-0.15059 0.112082,-0.205012 0.0506396,-0.0544564 0.112116,-0.095486 0.183236,-0.122987 0.0717338,-0.027569 0.149874,-0.0410297 0.235103,-0.0410297 0.0903062,0 0.170389,0.0134607 0.240215,0.0410297 0.0698595,0.0275008 0.126872,0.0685305 0.170389,0.122987 0.0435855,0.0544223 0.0704729,0.122953 0.0813778,0.205012l-1.0224 0zm3.54948 -1.21078l0 0.488131 -0.353625 0 0 0.403584 0.353625 0 0 0.818685c0.000647479,0.15761 0.0294773,0.288946 0.0852286,0.392747 0.0557513,0.10438 0.134539,0.181873 0.235716,0.231831 0.101859,0.0499922 0.221642,0.0723813 0.359385,0.0673037 0.0467548,-0.00129496 0.0916352,-0.00511167 0.133892,-0.0109049 0.0422906,-0.00575915 0.0839337,-0.0140741 0.125577,-0.0256265 0.0409956,-0.0114842 0.0839337,-0.026274 0.128746,-0.0441989l-0.130654 -0.399767c-0.0352705,0.0173115 -0.0724494,0.0314197 -0.11215,0.0416772 -0.0390873,0.0102574 -0.077493,0.0160166 -0.114672,0.0160166 -0.0493106,0 -0.0922146,-0.00960994 -0.128746,-0.0294773 -0.0365314,-0.0198333 -0.0653272,-0.0499581 -0.085842,-0.0896928 -0.0205148,-0.0397007 -0.0313516,-0.0896928 -0.0313516,-0.149908l0 -0.818685 0.526536 0 0 -0.403584 -0.522754 0 0 -0.538089 -0.468911 0.0499581z"/>
  <g id="_266155232">
   <path id="_266155256" class="fil0" d="M3.28282 0.120261l6.47035 3.12548c0.326159,0.157508 0.617831,0.457052 0.825024,0.812654 0.203717,0.349741 0.330214,0.760481 0.330214,1.1476l0 6.08827c0,0.233467 -0.0460732,0.439399 -0.128133,0.609243 -0.0781745,0.161938 -0.188961,0.290752 -0.324659,0.380513 -0.140639,0.0931006 -0.303327,0.142616 -0.480122,0.142616 -0.154509,0 -0.31948,-0.0386783 -0.488471,-0.120261l-6.47032 -3.12552c-0.326159,-0.157508 -0.617865,-0.457086 -0.825024,-0.812688 -0.203751,-0.349707 -0.330282,-0.760446 -0.330282,-1.1476l0 -6.08827c0,-0.233467 0.0461073,-0.439365 0.128133,-0.609209 0.0782086,-0.161938 0.188996,-0.290752 0.324693,-0.380513 0.140673,-0.0931347 0.303361,-0.142582 0.480122,-0.142582 0.154543,0 0.319514,0.0386442 0.488471,0.120261zm6.20421 3.67689l-6.47032 -3.12552c-0.0813778,-0.0392576 -0.156281,-0.0578982 -0.222358,-0.0578982 -0.0550357,0 -0.103119,0.0137334 -0.14207,0.0394962 -0.0439604,0.0290684 -0.0819231,0.0751075 -0.111332,0.13597 -0.0421202,0.0871711 -0.0657702,0.202661 -0.0657702,0.343095l0 6.08827c0,0.278552 0.0943615,0.579834 0.246349,0.840734 0.148613,0.255038 0.347696,0.464992 0.561296,0.568179l6.47035 3.12548c0.0813437,0.0392917 0.156213,0.0578982 0.222324,0.0578982 0.0550357,0 0.103119,-0.0136993 0.14207,-0.0394962 0.0439263,-0.0290684 0.0819231,-0.0750394 0.111332,-0.13597 0.0420861,-0.0871711 0.0657702,-0.202627 0.0657702,-0.34313l0 -6.08827c0,-0.278586 -0.0943956,-0.579834 -0.246349,-0.840734 -0.148545,-0.25497 -0.347662,-0.464958 -0.561296,-0.568111z"/>
   <path id="_266156432" class="fil0" d="M1.42142 1.47332l6.47032 3.12548c0.326159,0.157542 0.617865,0.457086 0.825024,0.812654 0.203751,0.349775 0.330248,0.760481 0.330248,1.1476l0 6.08827c0,0.233501 -0.0461073,0.439399 -0.128133,0.609277 -0.0782086,0.161938 -0.188996,0.290718 -0.324693,0.380479 -0.140639,0.0931347 -0.303327,0.142616 -0.480122,0.142616 -0.154509,0 -0.31948,-0.0386783 -0.488437,-0.120261l-6.47032 -3.12548c-0.326125,-0.157542 -0.617865,-0.457086 -0.825058,-0.812654 -0.203717,-0.349741 -0.330248,-0.760446 -0.330248,-1.14764l0 -6.08827c0,-0.233467 0.0460732,-0.439331 0.128133,-0.609209 0.0781745,-0.161938 0.188961,-0.290718 0.324659,-0.380513 0.140707,-0.0931687 0.303395,-0.142616 0.480156,-0.142616 0.154543,0 0.319514,0.0386442 0.488471,0.120261zm6.20421 3.67689l-6.47032 -3.12548c-0.0813437,-0.0392917 -0.156247,-0.0579323 -0.222358,-0.0579323 -0.0550357,0 -0.103119,0.0137334 -0.142104,0.0394962 -0.0439263,0.0291025 -0.0819231,0.0751075 -0.111332,0.136039 -0.0420861,0.087137 -0.0657702,0.202627 -0.0657702,0.343061l0 6.08827c0,0.278586 0.0943956,0.579834 0.246383,0.840734 0.148579,0.255038 0.347696,0.464958 0.561296,0.568145l6.47032 3.12548c0.0813437,0.0392917 0.156247,0.0578982 0.222324,0.0578982 0.0550357,0 0.103119,-0.0136993 0.14207,-0.0394962 0.0439604,-0.0290343 0.0819231,-0.0750394 0.111332,-0.13597 0.0421202,-0.087137 0.0657702,-0.202627 0.0657702,-0.34313l0 -6.08827c0,-0.278586 -0.0943615,-0.579834 -0.246349,-0.8407 -0.148545,-0.255004 -0.347662,-0.464958 -0.561262,-0.568145z"/>
  </g>
 </g>
</svg>
